<svg xmlns="http://www.w3.org/2000/svg" viewBox="0 0 64 64">
    <title>Calendar</title>
    <g id="Checklist-2" data-name="Checklist">
        <path
            d="M58,10H56a1,1,0,0,0-1,1v3A2,2,0,0,1,52.852,16,2.129,2.129,0,0,1,51,13.831V11a1,1,0,0,0-1-1H42a1,1,0,0,0-1,1v3A2,2,0,0,1,38.852,16,2.129,2.129,0,0,1,37,13.831V11a1,1,0,0,0-1-1H28a1,1,0,0,0-1,1v3A2,2,0,0,1,24.852,16,2.129,2.129,0,0,1,23,13.831V11a1,1,0,0,0-1-1H14a1,1,0,0,0-1,1v3A2,2,0,0,1,10.852,16,2.129,2.129,0,0,1,9,13.831V11a1,1,0,0,0-1-1H6a6.006,6.006,0,0,0-6,6V54a6.006,6.006,0,0,0,6,6H58a6.006,6.006,0,0,0,6-6V16A6.006,6.006,0,0,0,58,10Z"
            style="fill:#e6edff" />
        <path
            d="M58,10H56a1,1,0,0,0-1,1v3A2,2,0,0,1,52.852,16,2.129,2.129,0,0,1,51,13.831V11a1,1,0,0,0-1-1H42a1,1,0,0,0-1,1v3A2,2,0,0,1,38.852,16,2.129,2.129,0,0,1,37,13.831V11a1,1,0,0,0-1-1H28a1,1,0,0,0-1,1v3A2,2,0,0,1,24.852,16,2.129,2.129,0,0,1,23,13.831V11a1,1,0,0,0-1-1H14a1,1,0,0,0-1,1v3A2,2,0,0,1,10.852,16,2.129,2.129,0,0,1,9,13.831V11a1,1,0,0,0-1-1H6a6.006,6.006,0,0,0-6,6v4H64V16A6.006,6.006,0,0,0,58,10Z"
            style="fill:#e63b47" />
        <path d="M11,4A4,4,0,0,0,7,8v6a4,4,0,0,0,8,0V8A4,4,0,0,0,11,4Z" style="fill:#4aa4f2" />
        <path d="M25,4a4,4,0,0,0-4,4v6a4,4,0,0,0,8,0V8A4,4,0,0,0,25,4Z" style="fill:#4aa4f2" />
        <path d="M39,4a4,4,0,0,0-4,4v6a4,4,0,0,0,8,0V8A4,4,0,0,0,39,4Z" style="fill:#4aa4f2" />
        <path d="M53,4a4,4,0,0,0-4,4v6a4,4,0,0,0,8,0V8A4,4,0,0,0,53,4Z" style="fill:#4aa4f2" />
        <rect x="29" y="49" width="6" height="6" rx="1" ry="1" style="fill:#4aa4f2" />
        <rect x="37" y="49" width="6" height="6" rx="1" ry="1" style="fill:#4aa4f2" />
        <rect x="53" y="49" width="6" height="6" rx="1" ry="1" style="fill:#4aa4f2" />
        <rect x="21" y="49" width="6" height="6" rx="1" ry="1" style="fill:#4aa4f2" />
        <rect x="13" y="49" width="6" height="6" rx="1" ry="1" style="fill:#4aa4f2" />
        <rect x="5" y="49" width="6" height="6" rx="1" ry="1" style="fill:#4aa4f2" />
        <rect x="29" y="41" width="6" height="6" rx="1" ry="1" style="fill:#4aa4f2" />
        <rect x="37" y="41" width="6" height="6" rx="1" ry="1" style="fill:#4aa4f2" />
        <rect x="53" y="41" width="6" height="6" rx="1" ry="1" style="fill:#4aa4f2" />
        <rect x="21" y="41" width="6" height="6" rx="1" ry="1" style="fill:#4aa4f2" />
        <rect x="13" y="41" width="6" height="6" rx="1" ry="1" style="fill:#4aa4f2" />
        <rect x="5" y="41" width="6" height="6" rx="1" ry="1" style="fill:#4aa4f2" />
        <rect x="53" y="33" width="6" height="6" rx="1" ry="1" style="fill:#4aa4f2" />
        <path d="M58,29H6a1,1,0,0,0,0,2H58a1,1,0,0,0,0-2Z" style="fill:#4aa4f2" />
        <path d="M6,27h4a1,1,0,0,0,0-2H6a1,1,0,0,0,0,2Z" style="fill:#4aa4f2" />
        <path d="M14,27h4a1,1,0,0,0,0-2H14a1,1,0,0,0,0,2Z" style="fill:#4aa4f2" />
        <path d="M22,27h4a1,1,0,0,0,0-2H22a1,1,0,0,0,0,2Z" style="fill:#4aa4f2" />
        <path d="M30,27h4a1,1,0,0,0,0-2H30a1,1,0,0,0,0,2Z" style="fill:#4aa4f2" />
        <path d="M38,27h4a1,1,0,0,0,0-2H38a1,1,0,0,0,0,2Z" style="fill:#4aa4f2" />
        <path d="M46,27h4a1,1,0,0,0,0-2H46a1,1,0,0,0,0,2Z" style="fill:#4aa4f2" />
        <path d="M54,27h4a1,1,0,0,0,0-2H54a1,1,0,0,0,0,2Z" style="fill:#4aa4f2" />
        <path
            d="M10.707,33.293a1,1,0,0,0-1.414,0L8,34.586,6.707,33.293a1,1,0,0,0-1.414,1.414L6.586,36,5.293,37.293a1,1,0,1,0,1.414,1.414L8,37.414l1.293,1.293a1,1,0,0,0,1.414-1.414L9.414,36l1.293-1.293A1,1,0,0,0,10.707,33.293Z"
            style="fill:#e63b47" />
        <path
            d="M18.707,33.293a1,1,0,0,0-1.414,0L16,34.586l-1.293-1.293a1,1,0,0,0-1.414,1.414L14.586,36l-1.293,1.293a1,1,0,1,0,1.414,1.414L16,37.414l1.293,1.293a1,1,0,0,0,1.414-1.414L17.414,36l1.293-1.293A1,1,0,0,0,18.707,33.293Z"
            style="fill:#e63b47" />
        <path
            d="M26.707,33.293a1,1,0,0,0-1.414,0L24,34.586l-1.293-1.293a1,1,0,0,0-1.414,1.414L22.586,36l-1.293,1.293a1,1,0,1,0,1.414,1.414L24,37.414l1.293,1.293a1,1,0,0,0,1.414-1.414L25.414,36l1.293-1.293A1,1,0,0,0,26.707,33.293Z"
            style="fill:#e63b47" />
        <path
            d="M34.707,33.293a1,1,0,0,0-1.414,0L32,34.586l-1.293-1.293a1,1,0,0,0-1.414,1.414L30.586,36l-1.293,1.293a1,1,0,1,0,1.414,1.414L32,37.414l1.293,1.293a1,1,0,0,0,1.414-1.414L33.414,36l1.293-1.293A1,1,0,0,0,34.707,33.293Z"
            style="fill:#e63b47" />
        <path
            d="M42.707,33.293a1,1,0,0,0-1.414,0L40,34.586l-1.293-1.293a1,1,0,0,0-1.414,1.414L38.586,36l-1.293,1.293a1,1,0,1,0,1.414,1.414L40,37.414l1.293,1.293a1,1,0,0,0,1.414-1.414L41.414,36l1.293-1.293A1,1,0,0,0,42.707,33.293Z"
            style="fill:#e63b47" />
        <path d="M48.929,33.628a1,1,0,0,0-1.858,0L45,39V60h6V39Z" style="fill:#e63b47" />
        <path d="M48,33a1,1,0,0,0-.929.628L45,39h6l-2.071-5.372A1,1,0,0,0,48,33Z" style="fill:#cc1f30" />
        <rect x="45" y="55" width="6" height="5" style="fill:#cc1f30" />
    </g>
</svg>